<?xml version="1.0" encoding="UTF-8" standalone="no"?>
<svg xmlns:svg="http://www.w3.org/2000/svg" xmlns="http://www.w3.org/2000/svg" width="32" height="32" viewBox="0 0 59.341333 16.002667" version="1.1">
  <path fill="#bebebe" d="m 57.486911,-11.777872 0,-5.322176 -12.644461,7.5752914 2e-6,4.5989529 -10.114872,23.4991667 -5.062653,3.026408 0,16.072228 10.77463,-6.462399 z m -27.821986,21.2237964 -7.631883,-18.368603 0.05876,-5.1008924 -7.593974,4.4988144 0,4.5989529 10.114873,23.4991667 5.052221,-3.026408 z" />
  <path fill="#999999" opacity="0.5" d="m 49.903713,-21.669331 -12.63547,7.635251 -0.0096,0 0,5.2121468 -7.592785,18.267858 0,6.1010302 -5.05227,3.026408 -10.114959,-23.4991663 -8e-4,-4.5989529 7.594421,-4.4988148 -12.6546346,-7.64576 -7.5831989,4.569283 0,5.597865 17.0741815,42.775212 10.737273,6.39897 0,-16.072228 5.061857,-3.026408 10.114129,-23.4991663 0,-4.5989529 12.645056,-7.5752918 -7.583199,-4.569322 z" />
</svg>
